<svg id="Layer_1" data-name="Layer 1" xmlns="http://www.w3.org/2000/svg" viewBox="0 0 300 174.56"><defs><style>.cls-1{fill:#65cadf;}</style></defs><path class="cls-1" d="M218.15,104.09H300V86.3H269.22V18.68C269.22,7.47,261.92,0,250.71,0V17.62h-32.2V35.41h15.12c8.54,0,14.77-4.27,17.08-11V86.3H218.15ZM170.82,87.37H149.64A18.54,18.54,0,0,1,131,68.86v-16a18.54,18.54,0,0,1,18.68-18.51h21.18a18.57,18.57,0,0,1,18.86,18.51v16a18.57,18.57,0,0,1-18.86,18.51M111.74,60.86c0,26.86,19.58,45,46.62,45h3.74c27.05,0,46.8-18.15,46.8-45s-19.75-45-46.8-45h-3.74c-27,0-46.62,18.15-46.62,45M66.55,156.05H34c-8.72,0-15-5.34-15-12.63V142c0-7.48,6.23-13,15-13H66.55c8.72,0,15.12,5.51,15.12,13v1.42c0,7.29-6.4,12.63-15.12,12.63M60.5,81H39.68c-10.14,0-18.33-7.65-18.33-17.61v-11a18,18,0,0,1,18.33-18H60.5a18,18,0,0,1,18.33,18V63.17C78.83,73.31,70.64,81,60.5,81m40.39,61.21c0-19.39-13.34-30.78-41.1-30.78H24.91c-4.27,0-6.94-2.67-6.94-6,0-3.56,2.67-6.23,6.94-6.23H51.25C78.47,99.11,98,81.85,98,56.58V17.26A18.77,18.77,0,0,0,81,28.65c-7.12-8-18-12.81-31.85-12.81H46.26C21.71,15.84,2.14,32.56,2.14,57.3c0,12.63,5.16,22.24,13.7,28.64C6.76,88.61.36,95.91.36,105.34.36,114.06,5.69,121,13.7,124,5.16,128.83,0,136.3,0,146.44c0,17.09,16.73,28.12,49.47,28.12h2c32.74,0,49.47-11.57,49.47-32.39"/></svg>