<svg xmlns="http://www.w3.org/2000/svg" viewBox="0 0 24 24" style="color: rgb(17, 73, 84);fill: none;"><g clip-path="url(#clip0)"><path d="M10.5 16.5H1.5C1.23478 16.5 0.98043 16.3946 0.792893 16.2071C0.605357 16.0196 0.5 15.7652 0.5 15.5V1.5C0.5 1.23478 0.605357 0.98043 0.792893 0.792893C0.98043 0.605357 1.23478 0.5 1.5 0.5H20.5C20.7652 0.5 21.0196 0.605357 21.2071 0.792893C21.3946 0.98043 21.5 1.23478 21.5 1.5V9" stroke="currentColor" stroke-linecap="round" stroke-linejoin="round"/><path d="M2.5 11L4.3 9.207C4.48753 9.01953 4.74184 8.91421 5.007 8.91421C5.27216 8.91421 5.52647 9.01953 5.714 9.207L5.8 9.293C5.98753 9.48047 6.24184 9.58579 6.507 9.58579C6.77216 9.58579 7.02647 9.48047 7.214 9.293L11.3 5.207C11.4875 5.01953 11.7418 4.91421 12.007 4.91421C12.2722 4.91421 12.5265 5.01953 12.714 5.207L13.74 6.236C13.8374 6.33355 13.954 6.4099 14.0823 6.46027C14.2106 6.51063 14.348 6.53391 14.4857 6.52865C14.6235 6.5234 14.7587 6.48971 14.8828 6.42971C15.0069 6.36971 15.1173 6.28469 15.207 6.18L17.5 3.5" stroke="currentColor" stroke-linecap="round" stroke-linejoin="round"/><path d="M14.5039 3.5H17.5039V6.5" stroke="currentColor" stroke-linecap="round" stroke-linejoin="round"/><path d="M15.5 17.75C15.5494 17.75 15.5978 17.7647 15.6389 17.7921C15.68 17.8196 15.712 17.8586 15.731 17.9043C15.7499 17.95 15.7548 18.0003 15.7452 18.0488C15.7356 18.0973 15.7117 18.1418 15.6768 18.1768C15.6418 18.2117 15.5973 18.2355 15.5488 18.2452C15.5003 18.2548 15.45 18.2499 15.4043 18.231C15.3586 18.212 15.3196 18.18 15.2921 18.1389C15.2647 18.0978 15.25 18.0494 15.25 18C15.25 17.9337 15.2763 17.8701 15.3232 17.8232C15.3701 17.7763 15.4337 17.75 15.5 17.75Z" stroke="currentColor" stroke-linecap="round" stroke-linejoin="round"/><path d="M15.5 20.26C15.5494 20.26 15.5978 20.2747 15.6389 20.3021C15.68 20.3296 15.712 20.3687 15.731 20.4143C15.7499 20.46 15.7548 20.5103 15.7452 20.5588C15.7356 20.6073 15.7117 20.6518 15.6768 20.6868C15.6418 20.7217 15.5973 20.7456 15.5488 20.7552C15.5003 20.7649 15.45 20.7599 15.4043 20.741C15.3586 20.7221 15.3196 20.69 15.2921 20.6489C15.2647 20.6078 15.25 20.5595 15.25 20.51C15.25 20.4437 15.2763 20.3801 15.3232 20.3332C15.3701 20.2863 15.4337 20.26 15.5 20.26Z" stroke="currentColor" stroke-linecap="round" stroke-linejoin="round"/><path d="M18 17.74C18.0494 17.74 18.0978 17.7547 18.1389 17.7821C18.18 17.8096 18.212 17.8486 18.231 17.8943C18.2499 17.94 18.2548 17.9903 18.2452 18.0388C18.2355 18.0873 18.2117 18.1318 18.1768 18.1668C18.1418 18.2017 18.0973 18.2255 18.0488 18.2352C18.0003 18.2448 17.95 18.2399 17.9043 18.221C17.8586 18.202 17.8196 18.17 17.7921 18.1289C17.7647 18.0878 17.75 18.0394 17.75 17.99C17.75 17.9237 17.7763 17.8601 17.8232 17.8132C17.8701 17.7663 17.9337 17.74 18 17.74Z" stroke="currentColor" stroke-linecap="round" stroke-linejoin="round"/><path d="M20.5 17.74C20.5494 17.74 20.5978 17.7547 20.6389 17.7821C20.68 17.8096 20.712 17.8486 20.731 17.8943C20.7499 17.94 20.7548 17.9903 20.7452 18.0388C20.7355 18.0873 20.7117 18.1318 20.6768 18.1668C20.6418 18.2017 20.5973 18.2255 20.5488 18.2352C20.5003 18.2448 20.45 18.2399 20.4043 18.221C20.3586 18.202 20.3196 18.17 20.2921 18.1289C20.2647 18.0878 20.25 18.0394 20.25 17.99C20.25 17.9237 20.2763 17.8601 20.3232 17.8132C20.3701 17.7663 20.4337 17.74 20.5 17.74Z" stroke="blue" stroke-linecap="round" stroke-linejoin="round"/><path d="M18 20.25C18.0494 20.25 18.0978 20.2647 18.1389 20.2921C18.18 20.3196 18.212 20.3586 18.231 20.4043C18.2499 20.45 18.2548 20.5003 18.2452 20.5488C18.2355 20.5973 18.2117 20.6418 18.1768 20.6768C18.1418 20.7117 18.0973 20.7355 18.0488 20.7452C18.0003 20.7548 17.95 20.7499 17.9043 20.731C17.8586 20.712 17.8196 20.68 17.7921 20.6389C17.7647 20.5978 17.75 20.5494 17.75 20.5C17.75 20.4337 17.7763 20.3701 17.8232 20.3232C17.8701 20.2763 17.9337 20.25 18 20.25Z" stroke="currentColor" stroke-linecap="round" stroke-linejoin="round"/><path d="M20.5 20.25C20.5494 20.25 20.5978 20.2647 20.6389 20.2921C20.68 20.3196 20.712 20.3586 20.731 20.4043C20.7499 20.45 20.7548 20.5003 20.7452 20.5488C20.7355 20.5973 20.7117 20.6418 20.6768 20.6768C20.6418 20.7117 20.5973 20.7355 20.5488 20.7452C20.5003 20.7548 20.45 20.7499 20.4043 20.731C20.3586 20.712 20.3196 20.68 20.2921 20.6389C20.2647 20.5978 20.25 20.5494 20.25 20.5C20.25 20.4337 20.2763 20.3701 20.3232 20.3232C20.3701 20.2763 20.4337 20.25 20.5 20.25Z" stroke="currentColor" stroke-linecap="round" stroke-linejoin="round"/><path d="M21.5004 15C21.505 15.0668 21.4952 15.1339 21.4717 15.1966C21.4482 15.2593 21.4115 15.3163 21.3641 15.3637C21.3168 15.4111 21.2598 15.4477 21.197 15.4712C21.1343 15.4948 21.0672 15.5045 21.0004 15.5H15.0004C14.9325 15.5027 14.8647 15.491 14.8016 15.4657C14.7385 15.4404 14.6814 15.402 14.6342 15.3531C14.587 15.3042 14.5507 15.2458 14.5276 15.1818C14.5045 15.1179 14.4953 15.0498 14.5004 14.982V13C14.4956 12.9331 14.5053 12.866 14.5288 12.8031C14.5522 12.7403 14.5889 12.6833 14.6363 12.6359C14.6837 12.5884 14.7408 12.5518 14.8036 12.5283C14.8664 12.5049 14.9335 12.4952 15.0004 12.5H21.0004C21.0672 12.4954 21.1343 12.5052 21.197 12.5287C21.2598 12.5522 21.3168 12.5888 21.3641 12.6362C21.4115 12.6836 21.4482 12.7406 21.4717 12.8033C21.4952 12.8661 21.505 12.9331 21.5004 13V15Z" stroke="currentColor" stroke-linecap="round" stroke-linejoin="round"/><path d="M22.5039 10.5H13.5039C12.9516 10.5 12.5039 10.9477 12.5039 11.5V22.5C12.5039 23.0523 12.9516 23.5 13.5039 23.5H22.5039C23.0562 23.5 23.5039 23.0523 23.5039 22.5V11.5C23.5039 10.9477 23.0562 10.5 22.5039 10.5Z" stroke="currentColor" stroke-linecap="round" stroke-linejoin="round"/></g><defs><clipPath id="clip0"><rect width="24" height="24" fill="#317481"/></clipPath></defs></svg>
