<svg xmlns="http://www.w3.org/2000/svg" viewBox="0 0 24 24" style="color: rgb(17, 73, 84);fill: none;"><g clip-path="url(#clip0)"><path d="M12 6.5C13.6569 6.5 15 5.15685 15 3.5C15 1.84315 13.6569 0.5 12 0.5C10.3431 0.5 9 1.84315 9 3.5C9 5.15685 10.3431 6.5 12 6.5Z" stroke="currentColor" stroke-linecap="round" stroke-linejoin="round"/><path d="M16.4996 23.5C16.3661 23.5 16.2333 23.4822 16.1046 23.447L5.10457 20.447C4.72067 20.3416 4.39437 20.088 4.19746 19.742C4.00054 19.396 3.94914 18.9859 4.05457 18.602C4.15999 18.2181 4.4136 17.8918 4.75961 17.6949C5.10561 17.498 5.51567 17.4466 5.89957 17.552L16.8996 20.552C17.2513 20.6471 17.5564 20.8669 17.7579 21.1705C17.9594 21.4741 18.0435 21.8407 17.9945 22.2017C17.9455 22.5628 17.7668 22.8936 17.4917 23.1326C17.2166 23.3715 16.8639 23.5021 16.4996 23.5V23.5Z" stroke="currentColor" stroke-linecap="round" stroke-linejoin="round"/><path d="M19.457 20.151C19.7195 19.9319 19.8992 19.6298 19.9664 19.2946C20.0337 18.9594 19.9844 18.6113 19.8268 18.3079C19.6691 18.0045 19.4126 17.7641 19.0997 17.6265C18.7867 17.4888 18.4361 17.4622 18.106 17.551L12 19.218" stroke="currentColor" stroke-linecap="round" stroke-linejoin="round"/><path d="M6.25586 22.834C6.43055 23.0949 6.68267 23.2943 6.97671 23.4043C7.27075 23.5143 7.59188 23.5292 7.89486 23.447L11.9949 22.327" stroke="currentColor" stroke-linecap="round" stroke-linejoin="round"/><path d="M7.35856 11.4C6.69656 12.815 8.35056 13.059 9.42456 13.011C9.82238 12.9906 10.212 13.129 10.5078 13.3959C10.8035 13.6628 10.9811 14.0362 11.0016 14.434C11.022 14.8318 10.8835 15.2215 10.6167 15.5172C10.3498 15.813 9.97638 15.9906 9.57856 16.011C9.49356 16.011 9.35056 16.02 9.16556 16.02C7.65067 16.0943 6.1578 15.6342 4.94756 14.72C4.64446 14.4377 4.4036 14.0952 4.24037 13.7145C4.07713 13.3338 3.99512 12.9232 3.99956 12.509C3.99004 11.9623 4.10756 11.4209 4.34287 10.9274C4.57817 10.4339 4.92484 10.0018 5.35556 9.665C6.42254 8.91323 7.69435 8.50663 8.99956 8.5H14.9996C16.3051 8.50655 17.5772 8.91315 18.6446 9.665C19.0749 10.002 19.4213 10.4342 19.6564 10.9277C19.8915 11.4212 20.009 11.9625 19.9996 12.509C20.0039 12.9229 19.9218 13.3331 19.7586 13.7135C19.5954 14.0939 19.3546 14.436 19.0516 14.718C17.8414 15.6323 16.3485 16.0924 14.8336 16.018C14.6486 16.018 14.5056 16.018 14.4206 16.009C14.0227 15.9886 13.6493 15.811 13.3825 15.5152C13.1156 15.2195 12.9771 14.8298 12.9976 14.432C13.018 14.0342 13.1956 13.6608 13.4913 13.3939C13.7871 13.127 14.1767 12.9886 14.5746 13.009C15.6486 13.057 17.3036 12.809 16.6406 11.398" stroke="currentColor" stroke-linecap="round" stroke-linejoin="round"/></g><defs><clipPath id="clip0"><rect width="24" height="24" fill="white"/></clipPath></defs></svg>
