<svg xmlns="http://www.w3.org/2000/svg" viewBox="0 0 26 26" style="color: rgb(17, 73, 84);fill: none;"><path d="M10.9132 25.1336H2.04349C1.76674 25.1336 1.50132 25.0237 1.30563 24.828C1.10994 24.6323 1 24.3669 1 24.0902V4.26369C1 3.98696 1.10994 3.72154 1.30563 3.52585C1.50132 3.33015 1.76674 3.22021 2.04349 3.22021H4.13048" stroke="currentColor" stroke-width="0.905676" stroke-linecap="round" stroke-linejoin="round"/><path d="M16.6523 3.22021H18.7393C19.0161 3.22021 19.2815 3.33015 19.4772 3.52585C19.6729 3.72154 19.7828 3.98696 19.7828 4.26369V10.5247" stroke="currentColor" stroke-width="0.905676" stroke-linecap="round" stroke-linejoin="round"/><path d="M12.4787 3.2203C12.4787 2.66679 12.2589 2.13596 11.8675 1.74457C11.4761 1.35318 10.9452 1.1333 10.3917 1.1333C9.83822 1.1333 9.3074 1.35318 8.91601 1.74457C8.52462 2.13596 8.30477 2.66679 8.30477 3.2203H6.21777V6.35077H14.5657V3.2203H12.4787Z" stroke="currentColor" stroke-width="0.905676" stroke-linecap="round" stroke-linejoin="round"/><path d="M17.6959 10.5246V5.82889C17.6959 5.6905 17.6409 5.55777 17.5431 5.45992C17.4452 5.3621 17.3125 5.30713 17.1741 5.30713H14.5654" stroke="currentColor" stroke-width="0.905676" stroke-linecap="round" stroke-linejoin="round"/><path d="M6.21837 5.30713H3.60964C3.47126 5.30713 3.33855 5.3621 3.24071 5.45992C3.14286 5.55777 3.08789 5.6905 3.08789 5.82889V22.5248C3.08789 22.6632 3.14286 22.7959 3.24071 22.8938C3.33855 22.9916 3.47126 23.0466 3.60964 23.0466H10.9141" stroke="currentColor" stroke-width="0.905676" stroke-linecap="round" stroke-linejoin="round"/><path d="M6.21777 9.48047H14.5657" stroke="currentColor" stroke-width="0.905676" stroke-linecap="round" stroke-linejoin="round"/><path d="M6.21777 12.6108H12.4787" stroke="currentColor" stroke-width="0.905676" stroke-linecap="round" stroke-linejoin="round"/><path d="M6.21777 15.7412H10.3917" stroke="currentColor" stroke-width="0.905676" stroke-linecap="round" stroke-linejoin="round"/><path d="M18.7395 25.1328C22.1973 25.1328 25.0004 22.3297 25.0004 18.8718C25.0004 15.414 22.1973 12.6108 18.7395 12.6108C15.2817 12.6108 12.4785 15.414 12.4785 18.8718C12.4785 22.3297 15.2817 25.1328 18.7395 25.1328Z" stroke="currentColor" stroke-width="0.905676" stroke-linecap="round" stroke-linejoin="round"/><path d="M21.5297 17.0518L18.4983 21.0943C18.431 21.1839 18.3452 21.258 18.2468 21.3116C18.1484 21.3652 18.0396 21.3971 17.9278 21.405C17.816 21.4129 17.7038 21.3967 17.5988 21.3575C17.4938 21.3183 17.3984 21.257 17.3192 21.1777L15.7539 19.6125" stroke="currentColor" stroke-width="0.905676" stroke-linecap="round" stroke-linejoin="round"/></svg>
